<svg width="143" height="58" viewBox="0 0 143 58" fill="none" xmlns="http://www.w3.org/2000/svg">
<path d="M55.2224 34.5315V43.4603C55.2224 43.8201 55.0425 44 54.6827 44H50.9542C50.5944 44 50.4145 43.8201 50.4145 43.4603V17.3117C50.4145 16.9192 50.5944 16.723 50.9542 16.723H60.4227C63.8241 16.723 66.3261 17.5406 67.9287 19.176C69.5314 20.7786 70.3327 22.8881 70.3327 25.5046C70.3327 28.1538 69.4986 30.3288 67.8306 32.0295C66.1953 33.6975 63.9222 34.5315 61.0114 34.5315H55.2224ZM55.2224 30.1162H60.7661C61.4856 30.1162 62.2052 30.0017 62.9247 29.7728C63.6769 29.5438 64.2984 29.1023 64.7889 28.4482C65.2795 27.7613 65.5248 26.7802 65.5248 25.5046C65.5248 24.0982 65.0833 23.0353 64.2002 22.3158C63.3172 21.5962 62.1888 21.2365 60.8151 21.2365H55.2224V30.1162ZM76.1903 36.4449C76.3538 37.7531 76.9262 38.7506 77.9073 39.4375C78.8885 40.1243 80.1314 40.4677 81.6359 40.4677C82.8787 40.4677 83.9089 40.3369 84.7266 40.0752C85.5443 39.8136 86.3619 39.4538 87.1796 38.9959C87.4739 38.7997 87.7356 38.7016 87.9645 38.7016C88.3243 38.7016 88.5042 38.9305 88.5042 39.3884C88.5042 40.0752 88.2425 40.8111 87.7192 41.5961C87.2286 42.381 86.4437 43.0679 85.3644 43.6566C84.2851 44.2126 82.846 44.4906 81.0471 44.4906C79.281 44.4906 77.662 44.1308 76.1903 43.4113C74.7512 42.659 73.6065 41.5634 72.7561 40.1243C71.9057 38.6525 71.4806 36.8537 71.4806 34.7278C71.4806 32.8635 71.8403 31.2119 72.5599 29.7728C73.3121 28.3337 74.3587 27.2053 75.6997 26.3877C77.0733 25.57 78.6759 25.1612 80.5075 25.1612C82.4699 25.1612 84.0561 25.57 85.2662 26.3877C86.5091 27.1726 87.4085 28.2029 87.9645 29.4784C88.5532 30.754 88.8476 32.1113 88.8476 33.5504C88.8476 34.0409 88.8312 34.4825 88.7985 34.875C88.7985 35.2347 88.7822 35.5454 88.7495 35.8071C88.7168 36.2323 88.4388 36.4449 87.9155 36.4449H76.1903ZM76.1903 33.0598H84.1379C84.2033 32.5038 84.1379 31.9314 83.9416 31.3427C83.7781 30.7213 83.4183 30.198 82.8623 29.7728C82.3063 29.3476 81.5214 29.135 80.5075 29.135C79.2647 29.135 78.2671 29.4948 77.5149 30.2143C76.7953 30.9011 76.3538 31.8496 76.1903 33.0598ZM93.1679 29.8218H89.93C89.5702 29.8218 89.3903 29.6256 89.3903 29.2331V26.1424C89.3903 25.7499 89.5702 25.5537 89.93 25.5537H93.1679V19.6175C93.1679 19.2577 93.3314 19.0778 93.6585 19.0778H93.9038C95.1793 19.0778 96.1441 19.4049 96.7983 20.059C97.4851 20.7132 97.8285 21.7598 97.8285 23.1988V25.5537H101.802C102.097 25.5537 102.244 25.7499 102.244 26.1424V29.2331C102.244 29.6256 102.097 29.8218 101.802 29.8218H97.8285V43.4603C97.8285 43.8201 97.665 44 97.3379 44H93.6585C93.3314 44 93.1679 43.8201 93.1679 43.4603V29.8218ZM105.644 38.5054C106.461 38.5054 107.164 38.8161 107.753 39.4375C108.342 40.0262 108.636 40.7457 108.636 41.5961C108.636 42.4137 108.342 43.1333 107.753 43.7547C107.164 44.3434 106.461 44.6378 105.644 44.6378C104.826 44.6378 104.123 44.3434 103.534 43.7547C102.945 43.1333 102.651 42.4137 102.651 41.5961C102.651 40.7457 102.945 40.0262 103.534 39.4375C104.123 38.8161 104.826 38.5054 105.644 38.5054ZM110.814 20.7459C110.814 19.9609 111.059 19.3231 111.549 18.8325C112.073 18.3092 112.71 18.0476 113.463 18.0476C114.215 18.0476 114.836 18.3092 115.327 18.8325C115.85 19.3231 116.112 19.9609 116.112 20.7459C116.112 21.4981 115.85 22.1359 115.327 22.6592C114.836 23.1825 114.215 23.4441 113.463 23.4441C112.71 23.4441 112.073 23.1825 111.549 22.6592C111.059 22.1359 110.814 21.4981 110.814 20.7459ZM111.648 44C111.32 44 111.157 43.8201 111.157 43.4603V26.1424C111.157 25.7499 111.32 25.5537 111.648 25.5537H111.893C113.136 25.5537 114.101 25.8807 114.787 26.5349C115.474 27.189 115.818 28.2519 115.818 29.7237V43.4603C115.818 43.8201 115.638 44 115.278 44H111.648ZM121.187 29.8218H117.949C117.59 29.8218 117.41 29.6256 117.41 29.2331V26.1424C117.41 25.7499 117.59 25.5537 117.949 25.5537H121.187V19.6175C121.187 19.2577 121.351 19.0778 121.678 19.0778H121.923C123.199 19.0778 124.164 19.4049 124.818 20.059C125.505 20.7132 125.848 21.7598 125.848 23.1988V25.5537H129.822C130.116 25.5537 130.263 25.7499 130.263 26.1424V29.2331C130.263 29.6256 130.116 29.8218 129.822 29.8218H125.848V43.4603C125.848 43.8201 125.684 44 125.357 44H121.678C121.351 44 121.187 43.8201 121.187 43.4603V29.8218Z" fill="black"/>
<path d="M116.941 20.274C116.941 22.2272 115.352 23.8106 113.392 23.8106C111.432 23.8106 109.843 22.2272 109.843 20.274C109.843 18.3208 111.432 16.7374 113.392 16.7374C115.352 16.7374 116.941 18.3208 116.941 20.274Z" fill="#08B774"/>
<g clip-path="url(#clip0_70_1547)">
<path d="M5.47285 46.2943L13.3814 46.2943L7.86193 51.5282C6.96073 52.3828 5.47285 51.7384 5.47285 50.4936L5.47285 46.2943Z" fill="#08B774"/>
<g clip-path="url(#clip1_70_1547)">
<path d="M5.50635 16.7092C5.50635 13.3488 8.2305 10.6246 11.5909 10.6246H25.9052C33.1862 10.6246 39.0885 16.527 39.0885 23.8079V31.6648C39.0885 38.9457 33.1862 44.848 25.9052 44.848H5.50635V16.7092Z" fill="#08B774"/>
<path d="M31.2116 26.9945C31.6812 27.3991 31.6812 28.1266 31.2116 28.5312L19.4047 38.7022C18.7474 39.2684 17.7287 38.8015 17.7287 37.9339L17.7287 17.5918C17.7287 16.7243 18.7474 16.2573 19.4047 16.8235L31.2116 26.9945Z" fill="white"/>
<path d="M-7.80127 61.3801C5.17916 33.1375 5.73691 24.1121 18.261 24.1121V33.0361C5.22986 33.0361 4.77352 42.0616 -7.80127 61.3801Z" fill="white"/>
</g>
</g>
<defs>
<clipPath id="clip0_70_1547">
<rect width="35.2905" height="44.561" fill="white" transform="translate(3.79785 10.6246)"/>
</clipPath>
<clipPath id="clip1_70_1547">
<rect width="33.5821" height="34.2234" fill="white" transform="translate(5.50635 10.6246)"/>
</clipPath>
</defs>
</svg>
